<?xml version="1.0" encoding="utf-8"?>
<!-- Generator: Adobe Illustrator 19.2.1, SVG Export Plug-In . SVG Version: 6.00 Build 0)  -->
<svg version="1.0" id="Layer_1" xmlns="http://www.w3.org/2000/svg" xmlns:xlink="http://www.w3.org/1999/xlink" x="0px" y="0px"
	 viewBox="0 0 566.9 566.9" enable-background="new 0 0 566.9 566.9" xml:space="preserve">
<path fill="#408AAF" d="M233.4,80.6h101.2c0.3,0,0.5,0.2,0.5,0.5v11.5H232.9V81.2C232.9,80.9,233.2,80.6,233.4,80.6z"/>
<path fill="#408AAF" d="M285.8,485.3l-31-67.3c-0.1-0.4,0.2-0.7,0.5-0.7h57.2c0.4,0,0.6,0.3,0.6,0.7l-26.3,67.3
	C286.8,485.8,286,485.8,285.8,485.3z"/>
<path fill="#005390" d="M288.8,480.3l24.4-62.4c0.1-0.4-0.2-0.7-0.6-0.7l-19.9,5.9L288.8,480.3z"/>
<path fill="#666766" d="M318.7,423.2c-5.7,0-63.6,0-69.4,0c-6.2,0-10.1-46.6-10.1-46.6h89.6C328.8,376.6,324.9,423.2,318.7,423.2z"
	/>
<path fill="#545554" d="M298.5,379.3c0,0-2,26.7-5.8,44c16.9,0,22.9,0,26,0c6.1,0,10.1-46.6,10.1-46.6L298.5,379.3z"/>
<g>
	<path fill="#E5E5E5" d="M338.6,385.6H229.4c0,0-39-203.8,3.5-292.9h102.2C377.6,181.8,338.6,385.6,338.6,385.6z"/>
	<path fill="#CDCCCC" d="M305.3,92.7h29.8c42.5,89.1,3.5,292.9,3.5,292.9h-29.8C308.7,385.6,347.8,181.8,305.3,92.7z"/>
</g>
<g>
</g>
<g>
</g>
<g>
</g>
<g>
</g>
<g>
</g>
<g>
</g>
<g>
</g>
<g>
</g>
<g>
</g>
<g>
</g>
<g>
</g>
<g>
</g>
<g>
</g>
<g>
</g>
<g>
</g>
</svg>
